<mxfile host="Electron" agent="Mozilla/5.0 (Windows NT 10.0; Win64; x64) AppleWebKit/537.36 (KHTML, like Gecko) draw.io/28.0.6 Chrome/138.0.7204.100 Electron/37.2.3 Safari/537.36" version="28.0.6">
  <diagram name="Page-1" id="2xWTelKmgrN3ulslXwqX">
    <mxGraphModel dx="1426" dy="849" grid="1" gridSize="10" guides="1" tooltips="1" connect="1" arrows="1" fold="1" page="1" pageScale="1" pageWidth="1100" pageHeight="850" math="0" shadow="0">
      <root>
        <mxCell id="0" />
        <mxCell id="1" parent="0" />
        <mxCell id="HHqtpIV7buN2Hw5hy744-1" value="&lt;span style=&quot;font-size: 17px;&quot;&gt;crm_cust_info&lt;/span&gt;" style="swimlane;fontStyle=0;childLayout=stackLayout;horizontal=1;startSize=30;horizontalStack=0;resizeParent=1;resizeParentMax=0;resizeLast=0;collapsible=1;marginBottom=0;whiteSpace=wrap;html=1;rounded=1;shadow=0;dashed=1;dashPattern=1 1;fillColor=#dae8fc;strokeColor=#6c8ebf;" parent="1" vertex="1">
          <mxGeometry x="420" y="210" width="140" height="90" as="geometry" />
        </mxCell>
        <mxCell id="HHqtpIV7buN2Hw5hy744-2" value="&lt;span style=&quot;font-size: 17px;&quot;&gt;cst_id&lt;/span&gt;" style="text;strokeColor=none;fillColor=none;align=left;verticalAlign=middle;spacingLeft=4;spacingRight=4;overflow=hidden;points=[[0,0.5],[1,0.5]];portConstraint=eastwest;rotatable=0;whiteSpace=wrap;html=1;dashed=1;dashPattern=1 1;" parent="HHqtpIV7buN2Hw5hy744-1" vertex="1">
          <mxGeometry y="30" width="140" height="30" as="geometry" />
        </mxCell>
        <mxCell id="HHqtpIV7buN2Hw5hy744-19" value="&lt;span style=&quot;font-size: 17px;&quot;&gt;cst_key&lt;/span&gt;" style="text;strokeColor=none;fillColor=none;align=left;verticalAlign=middle;spacingLeft=4;spacingRight=4;overflow=hidden;points=[[0,0.5],[1,0.5]];portConstraint=eastwest;rotatable=0;whiteSpace=wrap;html=1;dashed=1;dashPattern=1 1;" parent="HHqtpIV7buN2Hw5hy744-1" vertex="1">
          <mxGeometry y="60" width="140" height="30" as="geometry" />
        </mxCell>
        <mxCell id="HHqtpIV7buN2Hw5hy744-5" value="&lt;span style=&quot;font-weight: normal;&quot;&gt;CUSTOMER INFORMATION&lt;/span&gt;" style="text;html=1;align=center;verticalAlign=middle;whiteSpace=wrap;rounded=0;fontSize=11;fontStyle=1" parent="1" vertex="1">
          <mxGeometry x="390" y="180" width="190" height="30" as="geometry" />
        </mxCell>
        <mxCell id="HHqtpIV7buN2Hw5hy744-6" value="&lt;span style=&quot;font-size: 17px;&quot;&gt;crm_prd_info&lt;/span&gt;" style="swimlane;fontStyle=0;childLayout=stackLayout;horizontal=1;startSize=30;horizontalStack=0;resizeParent=1;resizeParentMax=0;resizeLast=0;collapsible=1;marginBottom=0;whiteSpace=wrap;html=1;rounded=1;shadow=0;dashed=1;dashPattern=1 1;fillColor=#dae8fc;strokeColor=#6c8ebf;" parent="1" vertex="1">
          <mxGeometry x="440" y="536" width="140" height="60" as="geometry" />
        </mxCell>
        <mxCell id="HHqtpIV7buN2Hw5hy744-7" value="&lt;span style=&quot;font-size: 17px;&quot;&gt;cat_id&lt;/span&gt;" style="text;strokeColor=none;fillColor=none;align=left;verticalAlign=middle;spacingLeft=4;spacingRight=4;overflow=hidden;points=[[0,0.5],[1,0.5]];portConstraint=eastwest;rotatable=0;whiteSpace=wrap;html=1;dashed=1;dashPattern=1 1;" parent="HHqtpIV7buN2Hw5hy744-6" vertex="1">
          <mxGeometry y="30" width="140" height="30" as="geometry" />
        </mxCell>
        <mxCell id="HHqtpIV7buN2Hw5hy744-8" value="&lt;span style=&quot;font-weight: 400;&quot;&gt;Current &amp;amp; History Product Information&lt;/span&gt;" style="text;html=1;align=center;verticalAlign=middle;whiteSpace=wrap;rounded=0;fontSize=11;fontStyle=1" parent="1" vertex="1">
          <mxGeometry x="410" y="510" width="190" height="30" as="geometry" />
        </mxCell>
        <mxCell id="HHqtpIV7buN2Hw5hy744-9" value="&lt;span style=&quot;font-size: 17px;&quot;&gt;crm_sales_details&lt;/span&gt;" style="swimlane;fontStyle=0;childLayout=stackLayout;horizontal=1;startSize=30;horizontalStack=0;resizeParent=1;resizeParentMax=0;resizeLast=0;collapsible=1;marginBottom=0;whiteSpace=wrap;html=1;rounded=1;shadow=0;dashed=1;dashPattern=1 1;fillColor=#dae8fc;strokeColor=#6c8ebf;" parent="1" vertex="1">
          <mxGeometry x="140" y="362" width="170" height="90" as="geometry">
            <mxRectangle x="140" y="362" width="180" height="30" as="alternateBounds" />
          </mxGeometry>
        </mxCell>
        <mxCell id="HHqtpIV7buN2Hw5hy744-10" value="&lt;span style=&quot;font-size: 17px;&quot;&gt;cst_id&lt;/span&gt;" style="text;strokeColor=none;fillColor=none;align=left;verticalAlign=middle;spacingLeft=4;spacingRight=4;overflow=hidden;points=[[0,0.5],[1,0.5]];portConstraint=eastwest;rotatable=0;whiteSpace=wrap;html=1;dashed=1;dashPattern=1 1;" parent="HHqtpIV7buN2Hw5hy744-9" vertex="1">
          <mxGeometry y="30" width="170" height="30" as="geometry" />
        </mxCell>
        <mxCell id="HHqtpIV7buN2Hw5hy744-17" value="&lt;span style=&quot;font-size: 17px;&quot;&gt;prd_key&lt;/span&gt;" style="text;strokeColor=none;fillColor=none;align=left;verticalAlign=middle;spacingLeft=4;spacingRight=4;overflow=hidden;points=[[0,0.5],[1,0.5]];portConstraint=eastwest;rotatable=0;whiteSpace=wrap;html=1;dashed=1;dashPattern=1 1;" parent="HHqtpIV7buN2Hw5hy744-9" vertex="1">
          <mxGeometry y="60" width="170" height="30" as="geometry" />
        </mxCell>
        <mxCell id="HHqtpIV7buN2Hw5hy744-11" value="&lt;span style=&quot;font-weight: 400;&quot;&gt;PRODUCT SALE INFORMATION&lt;/span&gt;" style="text;html=1;align=center;verticalAlign=middle;whiteSpace=wrap;rounded=0;fontSize=11;fontStyle=1" parent="1" vertex="1">
          <mxGeometry x="130" y="332" width="190" height="30" as="geometry" />
        </mxCell>
        <mxCell id="HHqtpIV7buN2Hw5hy744-13" style="edgeStyle=orthogonalEdgeStyle;rounded=0;orthogonalLoop=1;jettySize=auto;html=1;exitX=0;exitY=0.5;exitDx=0;exitDy=0;entryX=1;entryY=0.5;entryDx=0;entryDy=0;" parent="1" source="HHqtpIV7buN2Hw5hy744-2" target="HHqtpIV7buN2Hw5hy744-10" edge="1">
          <mxGeometry relative="1" as="geometry">
            <mxPoint x="360" y="410" as="targetPoint" />
          </mxGeometry>
        </mxCell>
        <mxCell id="HHqtpIV7buN2Hw5hy744-18" value="" style="edgeStyle=orthogonalEdgeStyle;rounded=0;orthogonalLoop=1;jettySize=auto;html=1;" parent="1" source="HHqtpIV7buN2Hw5hy744-7" target="HHqtpIV7buN2Hw5hy744-17" edge="1">
          <mxGeometry relative="1" as="geometry" />
        </mxCell>
        <mxCell id="HHqtpIV7buN2Hw5hy744-20" value="&lt;span style=&quot;font-size: 17px;&quot;&gt;erp_CUST_AZ12&lt;/span&gt;" style="swimlane;fontStyle=0;childLayout=stackLayout;horizontal=1;startSize=30;horizontalStack=0;resizeParent=1;resizeParentMax=0;resizeLast=0;collapsible=1;marginBottom=0;whiteSpace=wrap;html=1;rounded=1;shadow=0;dashed=1;dashPattern=1 1;fillColor=#fff2cc;strokeColor=#d6b656;" parent="1" vertex="1">
          <mxGeometry x="860" y="162.5" width="180" height="60" as="geometry" />
        </mxCell>
        <mxCell id="HHqtpIV7buN2Hw5hy744-22" value="&lt;span style=&quot;font-size: 17px;&quot;&gt;cid&lt;/span&gt;" style="text;strokeColor=none;fillColor=none;align=left;verticalAlign=middle;spacingLeft=4;spacingRight=4;overflow=hidden;points=[[0,0.5],[1,0.5]];portConstraint=eastwest;rotatable=0;whiteSpace=wrap;html=1;dashed=1;dashPattern=1 1;" parent="HHqtpIV7buN2Hw5hy744-20" vertex="1">
          <mxGeometry y="30" width="180" height="30" as="geometry" />
        </mxCell>
        <mxCell id="HHqtpIV7buN2Hw5hy744-23" value="&lt;span style=&quot;font-weight: 400;&quot;&gt;EXTRA Customer Information(Birth date)&lt;/span&gt;" style="text;html=1;align=center;verticalAlign=middle;whiteSpace=wrap;rounded=0;fontSize=11;fontStyle=1" parent="1" vertex="1">
          <mxGeometry x="850" y="132.5" width="190" height="30" as="geometry" />
        </mxCell>
        <mxCell id="HHqtpIV7buN2Hw5hy744-24" style="edgeStyle=orthogonalEdgeStyle;rounded=0;orthogonalLoop=1;jettySize=auto;html=1;exitX=0;exitY=0.5;exitDx=0;exitDy=0;" parent="1" source="HHqtpIV7buN2Hw5hy744-22" edge="1">
          <mxGeometry relative="1" as="geometry">
            <mxPoint x="710" y="300" as="targetPoint" />
          </mxGeometry>
        </mxCell>
        <mxCell id="HHqtpIV7buN2Hw5hy744-25" value="&lt;span style=&quot;font-size: 17px;&quot;&gt;erp_loc_A101&lt;/span&gt;" style="swimlane;fontStyle=0;childLayout=stackLayout;horizontal=1;startSize=30;horizontalStack=0;resizeParent=1;resizeParentMax=0;resizeLast=0;collapsible=1;marginBottom=0;whiteSpace=wrap;html=1;rounded=1;shadow=0;dashed=1;dashPattern=1 1;fillColor=#fff2cc;strokeColor=#d6b656;" parent="1" vertex="1">
          <mxGeometry x="860" y="317.5" width="180" height="60" as="geometry" />
        </mxCell>
        <mxCell id="HHqtpIV7buN2Hw5hy744-26" value="&lt;span style=&quot;font-size: 17px;&quot;&gt;cid&lt;/span&gt;" style="text;strokeColor=none;fillColor=none;align=left;verticalAlign=middle;spacingLeft=4;spacingRight=4;overflow=hidden;points=[[0,0.5],[1,0.5]];portConstraint=eastwest;rotatable=0;whiteSpace=wrap;html=1;dashed=1;dashPattern=1 1;" parent="HHqtpIV7buN2Hw5hy744-25" vertex="1">
          <mxGeometry y="30" width="180" height="30" as="geometry" />
        </mxCell>
        <mxCell id="HHqtpIV7buN2Hw5hy744-27" value="&lt;span style=&quot;font-weight: normal;&quot;&gt;Customer&#39;s Location&lt;/span&gt;" style="text;html=1;align=center;verticalAlign=middle;whiteSpace=wrap;rounded=0;fontSize=11;fontStyle=1" parent="1" vertex="1">
          <mxGeometry x="850" y="287.5" width="190" height="30" as="geometry" />
        </mxCell>
        <mxCell id="HHqtpIV7buN2Hw5hy744-28" value="&lt;span style=&quot;font-size: 17px;&quot;&gt;erp_PX_CAT_G1V2&lt;/span&gt;" style="swimlane;fontStyle=0;childLayout=stackLayout;horizontal=1;startSize=30;horizontalStack=0;resizeParent=1;resizeParentMax=0;resizeLast=0;collapsible=1;marginBottom=0;whiteSpace=wrap;html=1;rounded=1;shadow=0;dashed=1;dashPattern=1 1;fillColor=#fff2cc;strokeColor=#d6b656;" parent="1" vertex="1">
          <mxGeometry x="860" y="536" width="220" height="50" as="geometry" />
        </mxCell>
        <mxCell id="HHqtpIV7buN2Hw5hy744-29" value="&lt;span style=&quot;font-size: 17px;&quot;&gt;id&lt;/span&gt;" style="text;strokeColor=none;fillColor=none;align=left;verticalAlign=middle;spacingLeft=4;spacingRight=4;overflow=hidden;points=[[0,0.5],[1,0.5]];portConstraint=eastwest;rotatable=0;whiteSpace=wrap;html=1;dashed=1;dashPattern=1 1;" parent="HHqtpIV7buN2Hw5hy744-28" vertex="1">
          <mxGeometry y="30" width="220" height="20" as="geometry" />
        </mxCell>
        <mxCell id="HHqtpIV7buN2Hw5hy744-30" value="&lt;span style=&quot;font-weight: normal;&quot;&gt;Product Categories&lt;/span&gt;" style="text;html=1;align=center;verticalAlign=middle;whiteSpace=wrap;rounded=0;fontSize=11;fontStyle=1" parent="1" vertex="1">
          <mxGeometry x="850" y="506" width="190" height="30" as="geometry" />
        </mxCell>
        <mxCell id="HHqtpIV7buN2Hw5hy744-31" style="edgeStyle=orthogonalEdgeStyle;rounded=0;orthogonalLoop=1;jettySize=auto;html=1;exitX=0;exitY=0.5;exitDx=0;exitDy=0;entryX=1;entryY=0.5;entryDx=0;entryDy=0;" parent="1" source="HHqtpIV7buN2Hw5hy744-26" target="HHqtpIV7buN2Hw5hy744-19" edge="1">
          <mxGeometry relative="1" as="geometry">
            <Array as="points">
              <mxPoint x="710" y="363" />
              <mxPoint x="710" y="285" />
            </Array>
          </mxGeometry>
        </mxCell>
        <mxCell id="HHqtpIV7buN2Hw5hy744-32" style="edgeStyle=orthogonalEdgeStyle;rounded=0;orthogonalLoop=1;jettySize=auto;html=1;exitX=0;exitY=0.5;exitDx=0;exitDy=0;entryX=1;entryY=0.5;entryDx=0;entryDy=0;" parent="1" source="HHqtpIV7buN2Hw5hy744-29" target="HHqtpIV7buN2Hw5hy744-7" edge="1">
          <mxGeometry relative="1" as="geometry">
            <Array as="points">
              <mxPoint x="600" y="576" />
              <mxPoint x="600" y="581" />
            </Array>
          </mxGeometry>
        </mxCell>
        <mxCell id="HHqtpIV7buN2Hw5hy744-33" value="" style="whiteSpace=wrap;html=1;aspect=fixed;fillColor=none;dashed=1;rounded=1;" parent="1" vertex="1">
          <mxGeometry x="60" y="80" width="567.5" height="567.5" as="geometry" />
        </mxCell>
        <mxCell id="HHqtpIV7buN2Hw5hy744-34" value="CRM" style="rounded=1;whiteSpace=wrap;html=1;fontSize=18;fontStyle=1;fillColor=#dae8fc;strokeColor=#6c8ebf;" parent="1" vertex="1">
          <mxGeometry x="240" y="60" width="180" height="60" as="geometry" />
        </mxCell>
        <mxCell id="HHqtpIV7buN2Hw5hy744-36" value="" style="whiteSpace=wrap;html=1;aspect=fixed;fillColor=none;dashed=1;rounded=1;" parent="1" vertex="1">
          <mxGeometry x="720" y="80" width="570" height="570" as="geometry" />
        </mxCell>
        <mxCell id="HHqtpIV7buN2Hw5hy744-37" value="ERP" style="rounded=1;whiteSpace=wrap;html=1;fontSize=18;fontStyle=1;fillColor=#fff2cc;strokeColor=#d6b656;" parent="1" vertex="1">
          <mxGeometry x="920" y="50" width="190" height="60" as="geometry" />
        </mxCell>
        <mxCell id="CV9H_c1BpSV4y6hA-02l-1" value="&lt;font style=&quot;font-size: 15px;&quot;&gt;&lt;b&gt;Product&lt;/b&gt;&lt;/font&gt;" style="text;html=1;align=center;verticalAlign=middle;whiteSpace=wrap;rounded=1;fillColor=#f8cecc;strokeColor=#b85450;" vertex="1" parent="1">
          <mxGeometry x="890" y="587" width="140" height="30" as="geometry" />
        </mxCell>
        <mxCell id="CV9H_c1BpSV4y6hA-02l-2" value="&lt;font style=&quot;font-size: 15px;&quot;&gt;&lt;b&gt;Product&lt;/b&gt;&lt;/font&gt;" style="text;html=1;align=center;verticalAlign=middle;whiteSpace=wrap;rounded=1;fillColor=#f8cecc;strokeColor=#b85450;" vertex="1" parent="1">
          <mxGeometry x="455" y="596" width="110" height="30" as="geometry" />
        </mxCell>
        <mxCell id="CV9H_c1BpSV4y6hA-02l-3" value="&lt;font style=&quot;font-size: 17px;&quot;&gt;&lt;b style=&quot;&quot;&gt;Customer&lt;/b&gt;&lt;/font&gt;" style="text;html=1;align=center;verticalAlign=middle;whiteSpace=wrap;rounded=1;fillColor=#d5e8d4;strokeColor=#82b366;" vertex="1" parent="1">
          <mxGeometry x="440" y="300" width="100" height="30" as="geometry" />
        </mxCell>
        <mxCell id="CV9H_c1BpSV4y6hA-02l-4" value="&lt;font style=&quot;font-size: 17px;&quot;&gt;&lt;b style=&quot;&quot;&gt;Customer&lt;/b&gt;&lt;/font&gt;" style="text;html=1;align=center;verticalAlign=middle;whiteSpace=wrap;rounded=1;fillColor=#d5e8d4;strokeColor=#82b366;" vertex="1" parent="1">
          <mxGeometry x="880" y="222.5" width="140" height="30" as="geometry" />
        </mxCell>
        <mxCell id="CV9H_c1BpSV4y6hA-02l-5" value="&lt;font style=&quot;font-size: 17px;&quot;&gt;&lt;b style=&quot;&quot;&gt;Customer&lt;/b&gt;&lt;/font&gt;" style="text;html=1;align=center;verticalAlign=middle;whiteSpace=wrap;rounded=1;fillColor=#d5e8d4;strokeColor=#82b366;" vertex="1" parent="1">
          <mxGeometry x="880" y="377.5" width="140" height="30" as="geometry" />
        </mxCell>
      </root>
    </mxGraphModel>
  </diagram>
</mxfile>
